<svg xmlns="http://www.w3.org/2000/svg" width="760" height="686" viewBox="0 0 760 686" font-family="system-ui,-apple-system,'Segoe UI',Roboto,sans-serif" role="img" aria-label="PhishHawk 2.2 against 2.0 on real mail">
<title>PhishHawk 2.2 against 2.0 on real mail</title>
<rect x="0.5" y="0.5" width="759" height="685" rx="12" fill="#fcfcfb" stroke="rgba(11,11,11,0.10)"/>
<text x="28.0" y="38.0" fill="#0b0b0b" font-size="16" font-weight="600" text-anchor="start">PhishHawk 2.2 against 2.0 on real mail</text>
<text x="28.0" y="60.0" fill="#52514e" font-size="12.5" font-weight="400" text-anchor="start">Held-out sets only, scored once after all tuning, both versions on the same messages</text>
<circle cx="33.0" cy="86.0" r="5" fill="#86b6ef"/>
<text x="44.0" y="90.0" fill="#52514e" font-size="12" font-weight="400" text-anchor="start">2.0</text>
<circle cx="95.7" cy="86.0" r="5" fill="#1c5cab"/>
<text x="106.7" y="90.0" fill="#52514e" font-size="12" font-weight="400" text-anchor="start">2.2</text>
<text x="28.0" y="124.0" fill="#0b0b0b" font-size="13" font-weight="600" text-anchor="start">Real phishing flagged · higher is better</text>
<line x1="250.0" y1="142.0" x2="250.0" y2="246.0" stroke="#c3c2b7" stroke-width="1"/>
<text x="250.0" y="264.0" fill="#898781" font-size="11.5" font-weight="400" text-anchor="middle">0%</text>
<line x1="360.0" y1="142.0" x2="360.0" y2="246.0" stroke="#e1e0d9" stroke-width="1"/>
<text x="360.0" y="264.0" fill="#898781" font-size="11.5" font-weight="400" text-anchor="middle">25%</text>
<line x1="470.0" y1="142.0" x2="470.0" y2="246.0" stroke="#e1e0d9" stroke-width="1"/>
<text x="470.0" y="264.0" fill="#898781" font-size="11.5" font-weight="400" text-anchor="middle">50%</text>
<line x1="580.0" y1="142.0" x2="580.0" y2="246.0" stroke="#e1e0d9" stroke-width="1"/>
<text x="580.0" y="264.0" fill="#898781" font-size="11.5" font-weight="400" text-anchor="middle">75%</text>
<line x1="690.0" y1="142.0" x2="690.0" y2="246.0" stroke="#e1e0d9" stroke-width="1"/>
<text x="690.0" y="264.0" fill="#898781" font-size="11.5" font-weight="400" text-anchor="middle">100%</text>
<text x="28.0" y="162.5" fill="#52514e" font-size="13" font-weight="400" text-anchor="start">Unseen phishing, 2022-2026 (5,714)</text>
<line x1="601.6" y1="158.0" x2="607.7" y2="158.0" stroke="#86b6ef" stroke-width="2" stroke-linecap="round"/>
<circle cx="601.6" cy="158.0" r="6" fill="#86b6ef" stroke="#fcfcfb" stroke-width="2"/>
<circle cx="607.7" cy="158.0" r="6" fill="#1c5cab" stroke="#fcfcfb" stroke-width="2"/>
<text x="619.7" y="162.5" fill="#0b0b0b" font-size="12.5" font-weight="600" text-anchor="start">79.9% → 81.3%</text>
<text x="28.0" y="198.5" fill="#52514e" font-size="13" font-weight="400" text-anchor="start">Earlier held-out sample (200)</text>
<line x1="584.4" y1="194.0" x2="586.6" y2="194.0" stroke="#86b6ef" stroke-width="2" stroke-linecap="round"/>
<circle cx="584.4" cy="194.0" r="6" fill="#86b6ef" stroke="#fcfcfb" stroke-width="2"/>
<circle cx="586.6" cy="194.0" r="6" fill="#1c5cab" stroke="#fcfcfb" stroke-width="2"/>
<text x="598.6" y="198.5" fill="#0b0b0b" font-size="12.5" font-weight="600" text-anchor="start">76% → 76.5%</text>
<text x="28.0" y="234.5" fill="#52514e" font-size="13" font-weight="400" text-anchor="start">Phishing from 2005-2007 (2,279)</text>
<line x1="503.9" y1="230.0" x2="499.5" y2="230.0" stroke="#86b6ef" stroke-width="2" stroke-linecap="round"/>
<circle cx="503.9" cy="230.0" r="6" fill="#86b6ef" stroke="#fcfcfb" stroke-width="2"/>
<circle cx="499.5" cy="230.0" r="6" fill="#1c5cab" stroke="#fcfcfb" stroke-width="2"/>
<text x="515.9" y="234.5" fill="#0b0b0b" font-size="12.5" font-weight="600" text-anchor="start">57.7% → 56.7%</text>
<text x="28.0" y="304.0" fill="#0b0b0b" font-size="13" font-weight="600" text-anchor="start">Called likely phishing, not just suspicious · higher is better</text>
<line x1="250.0" y1="322.0" x2="250.0" y2="426.0" stroke="#c3c2b7" stroke-width="1"/>
<text x="250.0" y="444.0" fill="#898781" font-size="11.5" font-weight="400" text-anchor="middle">0%</text>
<line x1="360.0" y1="322.0" x2="360.0" y2="426.0" stroke="#e1e0d9" stroke-width="1"/>
<text x="360.0" y="444.0" fill="#898781" font-size="11.5" font-weight="400" text-anchor="middle">25%</text>
<line x1="470.0" y1="322.0" x2="470.0" y2="426.0" stroke="#e1e0d9" stroke-width="1"/>
<text x="470.0" y="444.0" fill="#898781" font-size="11.5" font-weight="400" text-anchor="middle">50%</text>
<line x1="580.0" y1="322.0" x2="580.0" y2="426.0" stroke="#e1e0d9" stroke-width="1"/>
<text x="580.0" y="444.0" fill="#898781" font-size="11.5" font-weight="400" text-anchor="middle">75%</text>
<line x1="690.0" y1="322.0" x2="690.0" y2="426.0" stroke="#e1e0d9" stroke-width="1"/>
<text x="690.0" y="444.0" fill="#898781" font-size="11.5" font-weight="400" text-anchor="middle">100%</text>
<text x="28.0" y="342.5" fill="#52514e" font-size="13" font-weight="400" text-anchor="start">Unseen phishing, 2022-2026 (5,714)</text>
<line x1="384.2" y1="338.0" x2="456.4" y2="338.0" stroke="#86b6ef" stroke-width="2" stroke-linecap="round"/>
<circle cx="384.2" cy="338.0" r="6" fill="#86b6ef" stroke="#fcfcfb" stroke-width="2"/>
<circle cx="456.4" cy="338.0" r="6" fill="#1c5cab" stroke="#fcfcfb" stroke-width="2"/>
<text x="372.2" y="342.5" fill="#52514e" font-size="12" font-weight="400" text-anchor="end">30.5%</text>
<text x="468.4" y="342.5" fill="#0b0b0b" font-size="12.5" font-weight="600" text-anchor="start">46.9%</text>
<text x="28.0" y="378.5" fill="#52514e" font-size="13" font-weight="400" text-anchor="start">Earlier held-out sample (200)</text>
<line x1="373.2" y1="374.0" x2="441.4" y2="374.0" stroke="#86b6ef" stroke-width="2" stroke-linecap="round"/>
<circle cx="373.2" cy="374.0" r="6" fill="#86b6ef" stroke="#fcfcfb" stroke-width="2"/>
<circle cx="441.4" cy="374.0" r="6" fill="#1c5cab" stroke="#fcfcfb" stroke-width="2"/>
<text x="361.2" y="378.5" fill="#52514e" font-size="12" font-weight="400" text-anchor="end">28%</text>
<text x="453.4" y="378.5" fill="#0b0b0b" font-size="12.5" font-weight="600" text-anchor="start">43.5%</text>
<text x="28.0" y="414.5" fill="#52514e" font-size="13" font-weight="400" text-anchor="start">Phishing from 2005-2007 (2,279)</text>
<line x1="367.5" y1="410.0" x2="380.7" y2="410.0" stroke="#86b6ef" stroke-width="2" stroke-linecap="round"/>
<circle cx="367.5" cy="410.0" r="6" fill="#86b6ef" stroke="#fcfcfb" stroke-width="2"/>
<circle cx="380.7" cy="410.0" r="6" fill="#1c5cab" stroke="#fcfcfb" stroke-width="2"/>
<text x="392.7" y="414.5" fill="#0b0b0b" font-size="12.5" font-weight="600" text-anchor="start">26.7% → 29.7%</text>
<text x="28.0" y="484.0" fill="#0b0b0b" font-size="13" font-weight="600" text-anchor="start">Legitimate mail flagged by mistake · lower is better</text>
<line x1="250.0" y1="502.0" x2="250.0" y2="642.0" stroke="#c3c2b7" stroke-width="1"/>
<text x="250.0" y="660.0" fill="#898781" font-size="11.5" font-weight="400" text-anchor="middle">0%</text>
<line x1="396.7" y1="502.0" x2="396.7" y2="642.0" stroke="#e1e0d9" stroke-width="1"/>
<text x="396.7" y="660.0" fill="#898781" font-size="11.5" font-weight="400" text-anchor="middle">10%</text>
<line x1="543.3" y1="502.0" x2="543.3" y2="642.0" stroke="#e1e0d9" stroke-width="1"/>
<text x="543.3" y="660.0" fill="#898781" font-size="11.5" font-weight="400" text-anchor="middle">20%</text>
<line x1="690.0" y1="502.0" x2="690.0" y2="642.0" stroke="#e1e0d9" stroke-width="1"/>
<text x="690.0" y="660.0" fill="#898781" font-size="11.5" font-weight="400" text-anchor="middle">30%</text>
<text x="28.0" y="522.5" fill="#52514e" font-size="13" font-weight="400" text-anchor="start">Everyday mail (1,400)</text>
<line x1="257.3" y1="518.0" x2="257.3" y2="518.0" stroke="#86b6ef" stroke-width="2" stroke-linecap="round"/>
<circle cx="257.3" cy="518.0" r="6" fill="#86b6ef" stroke="#fcfcfb" stroke-width="2"/>
<circle cx="257.3" cy="518.0" r="6" fill="#1c5cab" stroke="#fcfcfb" stroke-width="2"/>
<text x="269.3" y="522.5" fill="#0b0b0b" font-size="12.5" font-weight="600" text-anchor="start">0.5%, both</text>
<text x="28.0" y="558.5" fill="#52514e" font-size="13" font-weight="400" text-anchor="start">Spam-like mail (125)</text>
<line x1="508.1" y1="554.0" x2="449.5" y2="554.0" stroke="#86b6ef" stroke-width="2" stroke-linecap="round"/>
<circle cx="508.1" cy="554.0" r="6" fill="#86b6ef" stroke="#fcfcfb" stroke-width="2"/>
<circle cx="449.5" cy="554.0" r="6" fill="#1c5cab" stroke="#fcfcfb" stroke-width="2"/>
<text x="520.1" y="558.5" fill="#52514e" font-size="12" font-weight="400" text-anchor="start">17.6%</text>
<text x="437.5" y="558.5" fill="#0b0b0b" font-size="12.5" font-weight="600" text-anchor="end">13.6%</text>
<text x="28.0" y="594.5" fill="#52514e" font-size="13" font-weight="400" text-anchor="start">Enron business mail (4,279)</text>
<line x1="252.9" y1="590.0" x2="252.9" y2="590.0" stroke="#86b6ef" stroke-width="2" stroke-linecap="round"/>
<circle cx="252.9" cy="590.0" r="6" fill="#86b6ef" stroke="#fcfcfb" stroke-width="2"/>
<circle cx="252.9" cy="590.0" r="6" fill="#1c5cab" stroke="#fcfcfb" stroke-width="2"/>
<text x="264.9" y="594.5" fill="#0b0b0b" font-size="12.5" font-weight="600" text-anchor="start">0.2%, both</text>
<text x="28.0" y="630.5" fill="#52514e" font-size="13" font-weight="400" text-anchor="start">Mail-library edge cases (136)</text>
<line x1="411.3" y1="626.0" x2="379.1" y2="626.0" stroke="#86b6ef" stroke-width="2" stroke-linecap="round"/>
<circle cx="411.3" cy="626.0" r="6" fill="#86b6ef" stroke="#fcfcfb" stroke-width="2"/>
<circle cx="379.1" cy="626.0" r="6" fill="#1c5cab" stroke="#fcfcfb" stroke-width="2"/>
<text x="423.3" y="630.5" fill="#0b0b0b" font-size="12.5" font-weight="600" text-anchor="start">11% → 8.8%</text>
</svg>
